<?xml version="1.0" standalone="no"?>
<!DOCTYPE svg PUBLIC "-//W3C//DTD SVG 20010904//EN"
 "http://www.w3.org/TR/2001/REC-SVG-20010904/DTD/svg10.dtd">
<svg version="1.0" xmlns="http://www.w3.org/2000/svg"
 width="48.000000pt" height="48.000000pt" viewBox="0 0 48.000000 48.000000"
 preserveAspectRatio="xMidYMid meet">

<g transform="translate(0.000000,48.000000) scale(0.100000,-0.100000)"
fill="#000000" stroke="none">
<path d="M0 240 l0 -240 240 0 240 0 0 240 0 240 -240 0 -240 0 0 -240z m280
71 c24 -13 47 -17 77 -13 24 2 43 2 43 0 0 -3 -18 -17 -40 -32 -22 -14 -40
-33 -40 -42 0 -9 -13 -29 -29 -45 -28 -28 -61 -36 -95 -23 -28 11 -17 24 21
24 40 0 73 23 73 51 0 16 -11 13 -82 -21 -109 -53 -150 -53 -94 0 14 12 28 35
31 50 9 39 43 67 85 69 8 1 31 -7 50 -18z"/>
<path d="M190 280 c-20 -20 -27 -55 -12 -64 9 -5 60 17 87 38 20 16 20 16 1
31 -27 20 -52 19 -76 -5z"/>
</g>
</svg>
