<?xml version="1.0" encoding="UTF-8" standalone="no"?>
<svg
   width="64"
   height="64"
   viewBox="0 0 64 64"
   version="1.1"
   id="svg1"
   xmlns="http://www.w3.org/2000/svg">
  <path
     style="fill:#000000;fill-opacity:1;fill-rule:evenodd;stroke:none"
     d="M 62.00,20.26 L 58.86,19.58 L 45.45,22.08 L 34.05,15.67 L 28.59,15.22 L 22.91,16.55 L 15.98,22.27 L 13.67,26.85 L 12.76,32.80 L 3.36,42.72 L 2.00,45.33 L 5.71,45.79 L 18.25,41.51 L 47.87,25.56 L 57.76,21.39 L 41.81,30.79 L 39.88,37.64 L 36.05,41.73 L 31.13,43.55 L 23.44,42.95 L 19.61,45.18 L 27.34,48.70 L 36.02,47.61 L 40.33,45.03 L 43.67,41.43 L 46.62,32.61 Z M 40.22,26.92 L 40.30,27.49 L 39.92,27.87 L 26.05,35.41 L 22.19,36.85 L 19.12,36.81 L 18.10,32.72 L 18.14,31.05 L 18.93,27.64 L 20.07,25.45 L 21.32,23.89 L 24.42,21.58 L 26.17,20.86 L 28.33,20.41 L 31.70,20.48 L 33.52,20.98 L 35.67,21.96 L 37.42,23.25 L 38.67,24.54 Z"
     id="path1" />
</svg>
